<?xml version="1.0" encoding="UTF-8" standalone="no"?>
<!-- Created with Inkscape (http://www.inkscape.org/) -->

<svg
   xmlns:dc="http://purl.org/dc/elements/1.1/"
   xmlns:cc="http://creativecommons.org/ns#"
   xmlns:rdf="http://www.w3.org/1999/02/22-rdf-syntax-ns#"
   xmlns:svg="http://www.w3.org/2000/svg"
   xmlns="http://www.w3.org/2000/svg"
   xmlns:xlink="http://www.w3.org/1999/xlink"
   xmlns:sodipodi="http://sodipodi.sourceforge.net/DTD/sodipodi-0.dtd"
   xmlns:inkscape="http://www.inkscape.org/namespaces/inkscape"
   width="300.44739"
   height="318.13568"
   id="svg2"
   version="1.1"
   inkscape:version="0.48.2 r9819"
   sodipodi:docname="goat.svg">
  <title
     id="title6030">WGOAT logo</title>
  <defs
     id="defs4" />
  <sodipodi:namedview
     id="base"
     pagecolor="#ffffff"
     bordercolor="#666666"
     borderopacity="1.0"
     inkscape:pageopacity="0.0"
     inkscape:pageshadow="2"
     inkscape:zoom="2"
     inkscape:cx="146.07058"
     inkscape:cy="142.48595"
     inkscape:document-units="px"
     inkscape:current-layer="layer1"
     showgrid="false"
     showguides="false"
     inkscape:guide-bbox="true"
     inkscape:window-width="1280"
     inkscape:window-height="752"
     inkscape:window-x="0"
     inkscape:window-y="0"
     inkscape:window-maximized="1"
     fit-margin-top="10"
     fit-margin-left="10"
     fit-margin-right="10"
     fit-margin-bottom="10">
    <sodipodi:guide
       orientation="1,0"
       position="72.501992,270.96349"
       id="guide5591" />
    <sodipodi:guide
       orientation="0,1"
       position="152.73506,9.9999971"
       id="guide5781" />
  </sodipodi:namedview>
  <metadata
     id="metadata7">
    <rdf:RDF>
      <cc:Work
         rdf:about="">
        <dc:format>image/svg+xml</dc:format>
        <dc:type
           rdf:resource="http://purl.org/dc/dcmitype/StillImage" />
        <dc:title>WGOAT logo</dc:title>
        <dc:date>1/5/14</dc:date>
        <dc:creator>
          <cc:Agent>
            <dc:title>Benjamin Threlkeld</dc:title>
          </cc:Agent>
        </dc:creator>
        <dc:contributor>
          <cc:Agent>
            <dc:title>Mom, Dad, Jeremy Threlkeld, little brother and sisters</dc:title>
          </cc:Agent>
        </dc:contributor>
        <dc:description>The Logo for and API called WGOAT </dc:description>
      </cc:Work>
    </rdf:RDF>
  </metadata>
  <g
     inkscape:label="Layer 1"
     inkscape:groupmode="layer"
     id="layer1"
     transform="translate(10.630148,-660.75168)">
    <g
       id="g6001"
       transform="translate(23.688077,0)">
      <g
         id="g6003">
        <path
           sodipodi:nodetypes="ssssscccccszsss"
           inkscape:connector-curvature="0"
           id="path6005"
           d="m 82.62048,866.90738 c 0,0 -3.264866,22.44178 0.05164,35.11705 0.602502,2.30266 -1.812921,9.13469 -1.028038,12.80138 0.926901,4.33045 1.785738,12.68671 1.469325,14.85407 0,0 -2.985456,17.92175 -3.862652,21.00244 l -4.342252,14.33614 -0.315566,3.86889 13.82649,0 0.770429,-5.10643 3.632326,-13.08006 c 1.965435,-16.86899 2.662327,-18.76089 3.035287,-24.10499 0.36628,-5.24839 3.033761,-6.69724 2.366798,-10.93325 -0.666944,-4.23601 -3.09948,-8.98246 -2.945704,-14.98806 0.0804,-3.14013 2.65723,-32.58838 2.65723,-32.58838 -0.534886,-7.60072 -16.378701,-7.34465 -15.315313,-1.1788 z"
           style="fill:#9c3d27;fill-opacity:1;stroke:none" />
      </g>
      <path
         sodipodi:nodetypes="ccccc"
         inkscape:connector-curvature="0"
         id="path6007"
         d="m 89.131594,963.82585 -0.7456,5.0615 -13.800824,0 0.30869,-3.86233 z"
         style="fill:#000000;fill-opacity:1;stroke:none" />
    </g>
    <g
       transform="translate(-4.9999999,0)"
       id="g5995">
      <path
         style="fill:#9c3d27;fill-opacity:1;stroke:none"
         d="m 245.05591,848.11012 c -3.63489,15.40702 -10.87658,27.10384 -9.95643,41.86687 0.6722,10.78382 7.4055,16.50924 7.11282,19.45892 -0.25977,2.61743 -4.36581,6.74983 -8.34053,13.2877 -11.44729,18.82923 -15.55291,32.23316 -17.14928,33.27592 -1.32876,0.86801 -6.05248,7.82632 -6.05248,7.82632 l -0.7456,5.0615 -13.80082,0 0.30869,-3.86233 15.90775,-26.61342 c 2.91326,-4.89976 6.24787,-16.77559 7.00588,-25.84748 0.75795,-9.07187 -0.9031,-23.19986 -2.05315,-26.96897 -0.9273,-3.03929 -10.5469,-13.58913 -10.26503,-19.78484 1.39118,-30.57761 41.66308,-33.10722 38.02818,-17.70019 z"
         id="path5997"
         inkscape:connector-curvature="0"
         sodipodi:nodetypes="zssssccccczssz" />
      <path
         sodipodi:nodetypes="ccccc"
         inkscape:connector-curvature="0"
         id="path5999"
         d="m 210.67001,963.82585 -0.7456,5.0615 -13.80082,0 0.30869,-3.86233 z"
         style="fill:#000000;fill-opacity:1;stroke:none" />
    </g>
    <g
       id="g5980">
      <g
         id="g5813">
        <path
           style="fill:#9c3d27;fill-opacity:1;stroke:none"
           d="m 82.62048,866.90738 c 0,0 -3.264866,22.44178 0.05164,35.11705 0.602502,2.30266 -1.812921,9.13469 -1.028038,12.80138 0.926901,4.33045 1.785738,12.68671 1.469325,14.85407 0,0 -2.985456,17.92175 -3.862652,21.00244 l -4.342252,14.33614 -0.315566,3.86889 13.82649,0 0.770429,-5.10643 3.632326,-13.08006 c 1.965435,-16.86899 2.662327,-18.76089 3.035287,-24.10499 0.36628,-5.24839 3.033761,-6.69724 2.366798,-10.93325 -0.666944,-4.23601 -3.09948,-8.98246 -2.945704,-14.98806 0.0804,-3.14013 2.65723,-32.58838 2.65723,-32.58838 -0.534886,-7.60072 -16.378701,-7.34465 -15.315313,-1.1788 z"
           id="path5693"
           inkscape:connector-curvature="0"
           sodipodi:nodetypes="ssssscccccszsss" />
      </g>
      <path
         style="fill:#000000;fill-opacity:1;stroke:none"
         d="m 89.131594,963.82585 -0.7456,5.0615 -13.800824,0 0.30869,-3.86233 z"
         id="path5978"
         inkscape:connector-curvature="0"
         sodipodi:nodetypes="ccccc" />
    </g>
    <path
       style="fill:#9c3d27;fill-opacity:1;stroke:none"
       d="m 86.936074,769.32901 c 5.348191,2.96581 17.910246,3.03074 21.604666,4.3754 3.76463,1.37021 12.07049,7.1225 19.66271,8.5315 28.60921,5.30943 62.14531,6.74344 83.32435,3.53861 25.85786,-3.91283 42.5046,2.25622 52.74264,16.46732 12.03572,16.7064 10.22701,55.01407 -14.32447,64.42196 -48.4563,18.56799 -116.00699,17.09467 -151.07719,8.04731 C 59.154153,864.46559 57.871844,806.2156 57.871844,789.0187 c 0,-19.38801 8.211319,-31.25357 29.06423,-19.68969 z"
       id="path5613-4"
       inkscape:connector-curvature="0"
       sodipodi:nodetypes="sssssssss" />
    <g
       id="g5989"
       transform="translate(22.5,0)">
      <path
         sodipodi:nodetypes="zssssccccczssz"
         inkscape:connector-curvature="0"
         id="path5991"
         d="m 245.05591,848.11012 c -3.63489,15.40702 -10.87658,27.10384 -9.95643,41.86687 0.6722,10.78382 7.4055,16.50924 7.11282,19.45892 -0.25977,2.61743 -4.36581,6.74983 -8.34053,13.2877 -11.44729,18.82923 -15.55291,32.23316 -17.14928,33.27592 -1.32876,0.86801 -6.05248,7.82632 -6.05248,7.82632 l -0.7456,5.0615 -13.80082,0 0.30869,-3.86233 15.90775,-26.61342 c 2.91326,-4.89976 6.24787,-16.77559 7.00588,-25.84748 0.75795,-9.07187 -0.9031,-23.19986 -2.05315,-26.96897 -0.9273,-3.03929 -10.5469,-13.58913 -10.26503,-19.78484 1.39118,-30.57761 41.66308,-33.10722 38.02818,-17.70019 z"
         style="fill:#9c3d27;fill-opacity:1;stroke:none" />
      <path
         style="fill:#000000;fill-opacity:1;stroke:none"
         d="m 210.67001,963.82585 -0.7456,5.0615 -13.80082,0 0.30869,-3.86233 z"
         id="path5993"
         inkscape:connector-curvature="0"
         sodipodi:nodetypes="ccccc" />
    </g>
    <path
       style="color:#000000;fill:#9c3d27;fill-opacity:1;fill-rule:nonzero;stroke:none;marker:none;visibility:visible;display:inline;overflow:visible;enable-background:accumulate"
       d="m 86.936074,769.32901 c 5.348191,2.96581 12.140301,5.59863 19.854666,7.8754 6.57524,1.94058 13.82049,3.6225 21.41271,5.0315 28.60921,5.30943 62.14531,6.74344 83.32435,3.53861 25.85786,-3.91283 42.5046,2.25622 52.74264,16.46732 12.03572,16.7064 10.22701,55.01407 -14.32447,64.42196 -48.4563,18.56799 -116.00699,17.09467 -151.07719,8.04731 C 59.154153,864.46559 57.871844,806.2156 57.871844,789.0187 c 0,-19.38801 8.211319,-31.25357 29.06423,-19.68969 z"
       id="path5613"
       inkscape:connector-curvature="0"
       sodipodi:nodetypes="sssssssss" />
    <path
       style="fill:#8c3723;fill-opacity:1;stroke:none"
       d="m 84.353411,86.875115 c -7.833712,5.085784 -12.056261,25.293925 -26.367498,25.293925 -0.270217,5.92169 0.659167,14.83129 1.776512,22.47158 6.160304,-1.08783 21.011042,-16.59226 29.481854,-45.203405 -1.625393,-0.866273 -3.245748,-1.745145 -4.890868,-2.5621 z"
       transform="translate(0,681.1122)"
       id="path5661"
       inkscape:connector-curvature="0"
       sodipodi:nodetypes="ccccc" />
    <g
       id="g6011">
      <path
         sodipodi:nodetypes="cccccccc"
         transform="translate(0,681.1122)"
         inkscape:connector-curvature="0"
         id="path5625"
         d="m 61.871844,132.11554 2.690534,-2.62403 2.557524,-3.9284 2.125001,-1.40728 2.143203,1.5847 c -0.593507,-12.45394 4.648695,-19.83933 9.404368,-31.670876 l -18.92063,9.095396 z"
         style="fill:#ffca6a;fill-opacity:1;stroke:none" />
      <path
         style="fill:#e1a531;fill-opacity:1;stroke:none"
         d="m 61.871844,813.22774 2.690534,-2.62403 2.557524,-3.9284 2.125001,-1.40728 2.143203,1.5847 -0.05318,-4.45597 -9.463077,6.53214 z"
         id="path6009"
         inkscape:connector-curvature="0"
         sodipodi:nodetypes="cccccccc" />
    </g>
    <use
       x="0"
       y="0"
       xlink:href="#g6011"
       id="use6028"
       transform="matrix(-1,0,0,1,123.74369,0)"
       width="294.01324"
       height="327.93466" />
    <use
       x="0"
       y="0"
       xlink:href="#path5627"
       id="use5633"
       transform="matrix(-1,0,0,1,123.74684,0)"
       width="855"
       height="371.25" />
    <use
       x="0"
       y="0"
       xlink:href="#g5609"
       id="use5670"
       transform="matrix(-1,0,0,1,123.74369,0)"
       width="855"
       height="371.25" />
    <use
       x="0"
       y="0"
       xlink:href="#path4696"
       id="use5593"
       transform="matrix(-1,0,0,1,123.74369,0)"
       width="855"
       height="371.25" />
    <use
       x="0"
       y="0"
       xlink:href="#path5682"
       id="use5685"
       transform="matrix(-1,0,0,1,123.71591,0)"
       width="855"
       height="371.25"
       style="fill:#8c3723;fill-opacity:1" />
    <path
       style="color:#000000;fill:#e1a531;fill-opacity:1;stroke:none;stroke-width:13.5;marker:none;visibility:visible;display:inline;overflow:visible;enable-background:accumulate"
       d="m 79.028654,774.67734 c 0,0 -14.452509,12.65651 -17.153654,12.96611 l 0,5.67136 c 5.740032,0 9.437611,-1.88227 13.711283,-6.28983 0,0 4.268759,-8.49852 3.442371,-12.34764 z"
       id="path5627"
       inkscape:connector-curvature="0"
       sodipodi:nodetypes="ccccc" />
    <g
       id="g5609"
       transform="translate(0.168718,0)">
      <path
         sodipodi:nodetypes="cscscc"
         transform="translate(0,681.1122)"
         inkscape:connector-curvature="0"
         id="path5597"
         d="m 95.703126,37.851561 c 0,0 9.671474,-6.926769 16.011334,-8.11611 5.73622,-1.076099 12.49066,1.228739 12.49066,1.228739 0,0 -3.17629,9.093212 -7.69803,10.269857 -5.42544,1.411804 -13.78148,0.0291 -17.678963,1.890952 z"
         style="fill:#9c3d27;fill-opacity:1;stroke:none" />
      <path
         style="fill:#ffca6a;fill-opacity:1;stroke:none"
         d="m 100.90747,39.3416 c 0,0 6.86564,-1.233305 13.2055,-2.422645 4.05683,-0.76105 5.82036,-2.091682 6.98804,-3.468981 0.48339,-0.570155 0.97336,-0.672903 0.97336,-0.672903 0,0 -2.3379,5.710248 -5.73464,6.886893 -5.2973,1.835006 -11.7757,0.829347 -15.99958,1.732482 z"
         id="path5680"
         inkscape:connector-curvature="0"
         sodipodi:nodetypes="csscscc"
         transform="translate(0,681.1122)" />
    </g>
    <path
       style="color:#000000;fill:#9c3d27;fill-opacity:1;stroke:none;stroke-width:13.5;marker:none;visibility:visible;display:inline;overflow:visible;enable-background:accumulate"
       d="m 55.613065,-10.227265 c 11.791138,0 33.552997,3.2235359 37.764932,15.9529881 4.820881,14.5698299 -9.04468,31.9945319 -13.396111,45.1455739 -4.351431,13.151041 -6.34797,26.714221 -24.368821,26.714221"
       id="path4696"
       inkscape:connector-curvature="0"
       sodipodi:nodetypes="cszc"
       transform="matrix(1.0682481,0,0,1.3191422,2.4632934,687.79663)" />
    <path
       transform="matrix(0.86493466,0,0,0.87562291,5.218527,675.19095)"
       style="color:#000000;fill:#8c3723;fill-opacity:1;stroke:none;stroke-width:13.5;marker:none;visibility:visible;display:inline;overflow:visible;enable-background:accumulate"
       d="m 100.27136,34.580676 c 0,0.801683 0.93355,4.903407 -5.2052,4.64839 -5.86628,-0.243699 -9.356575,-4.768617 -9.577614,-10.062598 -0.361299,-8.653237 3.839201,4.550572 9.983369,4.550572 6.144165,0 4.799445,-4.43485 4.799445,0.863636 z"
       id="path5682"
       inkscape:connector-curvature="0"
       sodipodi:nodetypes="sssss" />
    <path
       sodipodi:type="arc"
       style="color:#000000;fill:#000000;fill-opacity:1;stroke:none;stroke-width:13.5;marker:none;visibility:visible;display:inline;overflow:visible;enable-background:accumulate"
       id="path5588"
       sodipodi:cx="50.547085"
       sodipodi:cy="50.151703"
       sodipodi:rx="1.6144429"
       sodipodi:ry="4.951622"
       d="m 52.161528,50.151703 c 0,2.734705 -0.722811,4.951622 -1.614443,4.951622 -0.891632,0 -1.614443,-2.216917 -1.614443,-4.951622 0,-2.734705 0.722811,-4.951622 1.614443,-4.951622 0.891632,0 1.614443,2.216917 1.614443,4.951622 z"
       transform="matrix(2.1963028,0.1534308,-0.14812478,1.1380023,-25.508502,669.97513)" />
    <path
       style="fill:#ffca6a;fill-opacity:1;stroke:none"
       d="m 79.871844,698.25638 c 0,0 18.219626,-33.63074 36.460186,-26.5165 -19.096235,9.62358 -25.135429,33.69806 -25.135429,33.69806 -5.448199,2.19449 -11.324758,-1.31202 -11.324757,-7.18156 z"
       id="path5595"
       inkscape:connector-curvature="0"
       sodipodi:nodetypes="cccc" />
    <path
       style="color:#000000;fill:#ffca6a;fill-opacity:1;stroke:none;stroke-width:13.5;marker:none;visibility:visible;display:inline;overflow:visible;enable-background:accumulate"
       d="m 61.875,89.59375 0,19.61428 c 9.358422,0 15.231294,-4.85394 18.249127,-10.868751 C 78.680481,93.260429 70.873251,89.59375 61.875,89.59375 z"
       transform="translate(0,681.1122)"
       id="path5615"
       inkscape:connector-curvature="0"
       sodipodi:nodetypes="cccc" />
    <use
       x="0"
       y="0"
       xlink:href="#path5615"
       id="use5621"
       width="855"
       height="371.25"
       transform="matrix(-1,0,0,1,123.74684,0)" />
    <path
       sodipodi:type="arc"
       style="color:#000000;fill:#000000;fill-opacity:1;stroke:none;stroke-width:13.5;marker:none;visibility:visible;display:inline;overflow:visible;enable-background:accumulate"
       id="path5623"
       sodipodi:cx="61.871845"
       sodipodi:cy="98.984375"
       sodipodi:rx="5.3156562"
       sodipodi:ry="3.3203125"
       d="m 67.187501,98.984375 c 0,1.833755 -2.3799,3.320315 -5.315656,3.320315 -2.935756,0 -5.315656,-1.48656 -5.315656,-3.320315 0,-1.833758 2.3799,-3.320313 5.315656,-3.320313 2.935756,0 5.315656,1.486555 5.315656,3.320313 z"
       transform="translate(0,681.75343)" />
    <use
       x="0"
       y="0"
       xlink:href="#path5595"
       id="use5672"
       transform="matrix(-1,0,0,1,123.74369,0)"
       width="855"
       height="371.25"
       style="fill:#ffca6a;fill-opacity:1" />
    <use
       x="0"
       y="0"
       xlink:href="#path5588"
       id="use5674"
       transform="matrix(-1,0,0,1,123.74369,0)"
       width="855"
       height="371.25" />
    <g
       transform="translate(0.168718,0)"
       id="g5676" />
    <path
       style="fill:#9c3d27;fill-opacity:1;stroke:none"
       d="m 251.14286,793.43185 c 0,0 5.26553,-7.88722 14.07403,-21.85944 4.19662,-6.65675 14.60034,-7.41714 14.60034,-7.41714 0,0 -0.67068,9.25332 -2.82852,13.2033 -4.75356,8.7016 -21.10799,20.95903 -21.10799,20.95903 z"
       id="path5691"
       inkscape:connector-curvature="0"
       sodipodi:nodetypes="cscscc"
       inkscape:transform-center-x="-11.253182"
       inkscape:transform-center-y="-12.866882" />
    <g
       transform="matrix(1.0836508,0,0,1,18.23689,-0.45710709)"
       id="g5717" />
    <path
       style="fill:#8c3723;fill-opacity:1;stroke:none"
       d="m 241.45835,214.75713 c 0,0 3.77091,-5.98113 2.00789,-10.78037 -1.76302,-4.79924 -5.65756,-7.956 -13.34156,-21.35529 0,0 -1.49302,2.92121 -0.17092,5.5906 1.028,2.07559 4.34585,7.80459 6.78729,11.28323 2.67181,3.80687 2.86668,4.48976 3.06221,4.9411 0.39971,0.92268 1.29237,5.73553 1.65509,10.32073 z"
       id="path5752"
       inkscape:connector-curvature="0"
       sodipodi:nodetypes="czssssc"
       transform="translate(0,681.1122)" />
    <path
       style="fill:#8c3723;fill-opacity:1;stroke:none"
       d="m 178.69559,199.51216 c 3.29835,-1.94739 42.67594,-9.06943 53.27938,-11.82944 1.09886,-0.28603 4.67582,2.26273 -0.35778,3.74697 -9.8912,2.51202 -29.11312,7.18459 -52.9216,8.08247 z"
       id="path5756"
       inkscape:connector-curvature="0"
       transform="translate(0,681.1122)"
       sodipodi:nodetypes="cscc" />
    <path
       style="fill:#8c3723;fill-opacity:1;stroke:none"
       d="m 62.528094,149.87288 c 1.413267,6.2335 5.735302,18.99958 13.235989,28.4536 8.392131,10.57762 16.196911,12.80148 22.257692,15.01963 C 79.274006,178.43336 71.815864,166.88246 62.528094,149.87288 z"
       id="path5758"
       inkscape:connector-curvature="0"
       sodipodi:nodetypes="cscc"
       transform="translate(0,681.1122)" />
    <path
       style="fill:#8c3723;fill-opacity:1;stroke:none"
       d="m 120.83602,878.9291 c 3.66459,-9.97437 5.51854,-17.77869 -0.83027,-28.53426 1.47399,12.82265 1.80056,19.10706 0.83027,28.53426 z"
       id="path5760"
       inkscape:connector-curvature="0"
       sodipodi:nodetypes="ccc" />
  </g>
</svg>
